<svg preserveAspectRatio="xMidYMid meet" data-bbox="20.995 10 158.009 180" viewBox="20.995 10 158.009 180" height="200" width="200" xmlns="http://www.w3.org/2000/svg" data-type="color" role="img" aria-labelledby="svgcid-quhctltsx8u6"><defs><style>#comp-l0gs6885 svg [data-color="1"] {fill: #878A91;}
#comp-l0gs6885 svg [data-color="2"] {fill: #9355A3;}
#comp-l0gs6885 svg [data-color="3"] {fill: #F9DED3;}</style></defs><title id="svgcid-quhctltsx8u6">Senioren betreuen Kinder</title>
    <g>
        <path fill="#F1A18E" d="M173.978 47.451l-53.65 8.087-.503-3.542 53.627-8.04.526 3.495z" data-color="1"></path>
        <path fill="#F1A18E" d="M173.452 63.603l-53.627-8.065.503-3.542 53.65 8.066-.526 3.541z" data-color="1"></path>
        <path fill="#F1A18E" d="M25.996 60.062l53.652-8.066.549 3.542-53.675 8.065-.526-3.541z" data-color="1"></path>
        <path fill="#F1A18E" d="M26.522 43.956l53.675 8.04-.549 3.542-53.652-8.087.526-3.495z" data-color="1"></path>
        <path d="M99.988 62.957c14.62 0 26.489-11.893 26.489-26.467 0-14.597-11.869-26.49-26.489-26.49-14.575 0-26.491 11.893-26.491 26.49 0 14.574 11.917 26.467 26.491 26.467z" fill="#514794" data-color="2"></path>
        <path d="M99.988 51.111c42.594 0 77.149 34.531 77.149 77.15H22.885c0-42.619 34.508-77.15 77.103-77.15z" fill="#514794" data-color="2"></path>
        <path d="M42.221 147.845c10.798 0 19.632-8.809 19.632-19.584 0-10.823-8.834-19.656-19.632-19.656-10.799 0-19.609 8.833-19.609 19.656.001 10.775 8.81 19.584 19.609 19.584z" fill="#514794" data-color="2"></path>
        <path d="M99.988 93.923c21.153 0 38.455 17.276 38.455 38.407v19.215c0 21.178-17.303 38.455-38.455 38.455-21.107 0-38.408-17.277-38.408-38.455V132.33c.001-21.131 17.301-38.407 38.408-38.407z" fill="#FFD5B8" data-color="3"></path>
        <path d="M157.649 147.83c10.72 0 19.488-8.744 19.488-19.44 0-10.743-8.768-19.511-19.488-19.511-10.719 0-19.462 8.768-19.462 19.511 0 10.695 8.743 19.44 19.462 19.44z" fill="#514794" data-color="2"></path>
        <path d="M173.739 50.993c2.895 0 5.265-2.395 5.265-5.29s-2.37-5.312-5.265-5.312c-2.943 0-5.312 2.417-5.312 5.312s2.369 5.29 5.312 5.29z" fill="#F1A18E" data-color="1"></path>
        <path d="M173.739 67.097a5.271 5.271 0 0 0 5.265-5.289c0-2.895-2.37-5.264-5.265-5.264-2.943 0-5.312 2.369-5.312 5.264a5.28 5.28 0 0 0 5.312 5.289z" fill="#F1A18E" data-color="1"></path>
        <path d="M26.283 50.993c2.895 0 5.265-2.395 5.265-5.29s-2.37-5.312-5.265-5.312c-2.943 0-5.288 2.417-5.288 5.312.001 2.895 2.345 5.29 5.288 5.29z" fill="#F1A18E" data-color="1"></path>
        <path d="M26.283 67.097a5.271 5.271 0 0 0 5.265-5.289c0-2.895-2.37-5.264-5.265-5.264a5.27 5.27 0 0 0-5.288 5.264 5.26 5.26 0 0 0 5.288 5.289z" fill="#F1A18E" data-color="1"></path>
        <path d="M120.615 164.802c4.212 0 7.681-3.47 7.681-7.705 0-4.26-3.469-7.73-7.681-7.73-4.259 0-7.729 3.47-7.729 7.73 0 4.235 3.47 7.705 7.729 7.705z" fill="#FFFFFF" data-color="4"></path>
        <path d="M118.293 118.234c4.859 0 9.118 2.466 11.631 6.175-3.303-1.532-7.299-2.418-11.631-2.418-4.307 0-8.327.886-11.653 2.418a14.099 14.099 0 0 1 11.653-6.175z" fill="#514794" data-color="2"></path>
        <path d="M82.136 118.234c4.833 0 9.117 2.466 11.63 6.175-3.326-1.532-7.347-2.418-11.63-2.418-4.332 0-8.352.886-11.654 2.418a14.035 14.035 0 0 1 11.654-6.175z" fill="#514794" data-color="2"></path>
        <path d="M118.293 140.561c2.106 0 3.829-1.722 3.829-3.828s-1.723-3.877-3.829-3.877c-2.129 0-3.852 1.771-3.852 3.877 0 2.105 1.724 3.828 3.852 3.828z" fill="#514794" data-color="2"></path>
        <path d="M79.408 164.802c4.211 0 7.704-3.47 7.704-7.705 0-4.26-3.493-7.73-7.704-7.73-4.26 0-7.705 3.47-7.705 7.73 0 4.235 3.446 7.705 7.705 7.705z" fill="#FFFFFF" data-color="4"></path>
        <path d="M81.705 140.561c2.106 0 3.828-1.722 3.828-3.828s-1.722-3.877-3.828-3.877c-2.13 0-3.829 1.771-3.829 3.877a3.826 3.826 0 0 0 3.829 3.828z" fill="#514794" data-color="2"></path>
        <path d="M105.779 175.403v-2.848a2.828 2.828 0 0 0-2.824-2.823h-.143c-1.532 0-2.823 1.291-2.823 2.823a2.828 2.828 0 0 0-2.824-2.823h-.145c-1.531 0-2.823 1.291-2.823 2.823v2.848c0 3.206 2.608 5.839 5.792 5.839 3.229 0 5.79-2.632 5.79-5.839z" fill="#F1A18E" data-color="1"></path>
    </g>
</svg>